<?xml version="1.0" standalone="no"?>
<!DOCTYPE svg PUBLIC "-//W3C//DTD SVG 20010904//EN"
 "http://www.w3.org/TR/2001/REC-SVG-20010904/DTD/svg10.dtd">
<svg version="1.0" xmlns="http://www.w3.org/2000/svg"
 width="500.000000pt" height="500.000000pt" viewBox="0 0 500.000000 500.000000"
 preserveAspectRatio="xMidYMid meet">

<g transform="translate(0.000000,500.000000) scale(0.100000,-0.100000)"
fill="#000000" stroke="none">
<path d="M630 2500 l0 -1270 630 0 630 0 0 1270 0 1270 -630 0 -630 0 0 -1270z"/>
<path d="M2110 3235 l0 -535 220 0 220 0 0 -735 0 -735 685 0 685 0 0 735 0
735 225 0 225 0 0 535 0 535 -1130 0 -1130 0 0 -535z"/>
<path d="M2073 2534 c-17 -26 -18 -67 -23 -624 -5 -535 -7 -600 -23 -640 -10
-24 -24 -54 -31 -65 -11 -18 13 -66 243 -482 141 -255 258 -463 261 -463 3 0
105 181 227 403 l222 402 -162 6 c-89 4 -177 11 -195 17 -78 26 -138 80 -174
157 -23 50 -23 51 -28 625 -3 396 -9 583 -16 600 -26 57 -64 72 -206 85 -76 7
-76 7 -95 -21z"/>
</g>
</svg>
